<svg id="Layer_1" enable-background="new 0 0 512 512" height="512" viewBox="0 0 512 512" width="512" xmlns="http://www.w3.org/2000/svg"><g id="XMLID_1715_"><g fill="#99ebfa"><path id="XMLID_1541_" d="m57.883 394.203c-8.91-8.91-10.019-22.977-2.614-33.173l20.731-28.547 20.732 28.547c7.405 10.196 6.296 24.263-2.614 33.173-10.007 10.006-26.229 10.006-36.235 0z"/><path id="XMLID_1540_" d="m198.01 394.203c-8.91-8.91-10.019-22.977-2.614-33.173l20.732-28.547 20.732 28.547c7.405 10.196 6.296 24.263-2.614 33.173-10.008 10.006-26.23 10.006-36.236 0z"/><path id="XMLID_1539_" d="m338.137 394.203c-8.91-8.91-10.019-22.977-2.614-33.173l20.732-28.547 20.732 28.547c7.405 10.196 6.296 24.263-2.614 33.173-10.008 10.006-26.231 10.006-36.236 0z"/><g id="XMLID_1536_"><path id="XMLID_1538_" d="m127.819 494.496c-8.91-8.91-10.019-22.977-2.614-33.173l20.732-28.547 20.732 28.547c7.405 10.196 6.296 24.263-2.614 33.173-10.007 10.005-26.23 10.005-36.236 0z"/><path id="XMLID_1537_" d="m267.946 494.496c-8.91-8.91-10.019-22.977-2.614-33.173l20.732-28.547 20.732 28.547c7.405 10.196 6.296 24.263-2.614 33.173-10.007 10.005-26.23 10.005-36.236 0z"/></g></g><path id="XMLID_1482_" d="m356 230c0-77.32-62.68-140-140-140s-140 62.68-140 140z" fill="#8aa8bd"/><g id="XMLID_1480_"><path id="XMLID_1481_" d="m194 90v-58c0-12.15 9.85-22 22-22h246v44h-224v36z" fill="#e2e9ee"/></g><path id="XMLID_1393_" d="m50 230h332v44h-332z" fill="#e2e9ee"/><g id="XMLID_935_"><path id="XMLID_1095_" d="m462 44h-224c-5.523 0-10 4.477-10 10v26.481c-3.96-.315-7.961-.481-12-.481s-8.04.166-12 .481v-48.481c0-6.617 5.383-12 12-12h246c5.523 0 10-4.477 10-10s-4.477-10-10-10h-246c-17.645 0-32 14.355-32 32v51.448c-64.229 14.012-113.209 69.29-117.659 136.552h-16.341c-5.523 0-10 4.477-10 10v44c0 5.523 4.477 10 10 10h332c5.523 0 10-4.477 10-10v-44c0-5.523-4.477-10-10-10h-16.341c-4.45-67.262-53.43-122.54-117.659-136.552v-19.448h214c5.523 0 10-4.477 10-10s-4.477-10-10-10zm-116.381 176h-84.492c-5.523 0-10 4.477-10 10s4.477 10 10 10h110.873v24h-312v-24h111.127c5.523 0 10-4.477 10-10s-4.477-10-10-10h-84.746c5.123-67.028 61.301-120 129.619-120s124.496 52.972 129.619 120z"/><path id="XMLID_1108_" d="m104.823 355.154-20.731-28.547c-1.881-2.591-4.89-4.124-8.091-4.124s-6.21 1.533-8.091 4.124l-20.731 28.547c-10.356 14.261-8.828 33.657 3.634 46.12 6.945 6.944 16.066 10.417 25.188 10.417s18.244-3.472 25.188-10.417c12.462-12.463 13.99-31.859 3.634-46.12zm-17.777 31.978c-6.091 6.091-16.001 6.091-22.092 0-5.465-5.466-6.136-13.972-1.594-20.227l12.64-17.405 12.64 17.405c4.542 6.255 3.871 14.762-1.594 20.227z"/><path id="XMLID_1114_" d="m244.95 355.154-20.731-28.547c-1.881-2.591-4.89-4.124-8.091-4.124s-6.21 1.533-8.091 4.124l-20.731 28.547c-10.357 14.261-8.828 33.658 3.634 46.121 6.945 6.944 16.066 10.417 25.188 10.417s18.244-3.472 25.188-10.417c12.462-12.464 13.99-31.86 3.634-46.121zm-17.777 31.978c-6.091 6.091-16.001 6.091-22.092 0-5.466-5.465-6.136-13.972-1.594-20.226l12.64-17.405 12.64 17.405c4.542 6.254 3.871 14.761-1.594 20.226z"/><path id="XMLID_1121_" d="m364.345 326.606c-1.881-2.591-4.89-4.124-8.091-4.124s-6.21 1.533-8.091 4.124l-20.731 28.547c-10.357 14.261-8.828 33.658 3.634 46.121 6.945 6.944 16.066 10.417 25.188 10.417s18.244-3.472 25.188-10.417c12.462-12.463 13.991-31.859 3.634-46.12zm2.955 60.526c-6.091 6.091-16.001 6.091-22.092 0-5.466-5.465-6.136-13.972-1.594-20.226l12.64-17.405 12.64 17.405c4.542 6.254 3.871 14.761-1.594 20.226z"/><path id="XMLID_1126_" d="m154.028 426.899c-1.881-2.591-4.89-4.124-8.091-4.124s-6.21 1.533-8.091 4.124l-20.731 28.547c-10.357 14.261-8.829 33.657 3.634 46.121 6.728 6.728 15.674 10.433 25.188 10.433s18.46-3.705 25.188-10.433c12.463-12.463 13.992-31.859 3.635-46.12zm2.954 60.525c-2.95 2.951-6.873 4.576-11.046 4.576s-8.096-1.625-11.046-4.576c-5.466-5.465-6.136-13.971-1.594-20.226l12.64-17.405 12.64 17.406c4.543 6.254 3.872 14.76-1.594 20.225z"/><path id="XMLID_1129_" d="m294.155 426.899c-1.881-2.591-4.89-4.124-8.091-4.124s-6.21 1.533-8.091 4.124l-20.731 28.547c-10.357 14.261-8.829 33.658 3.634 46.121 6.728 6.728 15.674 10.433 25.188 10.433s18.46-3.705 25.188-10.433c12.463-12.463 13.991-31.86 3.634-46.12zm2.954 60.525c-2.95 2.951-6.873 4.576-11.046 4.576s-8.096-1.625-11.046-4.576c-5.465-5.465-6.136-13.971-1.594-20.226l12.64-17.405 12.64 17.406c4.543 6.254 3.872 14.76-1.594 20.225z"/><path id="XMLID_1130_" d="m206.13 230c0 2.63 1.06 5.21 2.93 7.07 1.86 1.86 4.43 2.93 7.07 2.93 2.63 0 5.21-1.07 7.07-2.93s2.93-4.44 2.93-7.07-1.07-5.21-2.93-7.07-4.44-2.93-7.07-2.93c-2.64 0-5.21 1.07-7.07 2.93-1.87 1.86-2.93 4.44-2.93 7.07z"/></g></g></svg>