<svg id="Layer_1" enable-background="new 0 0 512 512" height="512" viewBox="0 0 512 512" width="512" xmlns="http://www.w3.org/2000/svg"><g><g><path d="m156.11 142.497h333.85v181h-333.85z" fill="#ff4656"/><path d="m489.96 142.497v181h-333.85v-23h296.22c8.08 0 14.63-6.54 14.63-14.62v-143.38z" fill="#d93c49"/></g><g><path d="m22.044 323.5h333.85v181h-333.85z" fill="#f9d11f"/><path d="m355.894 323.5v181h-333.85v-23h296.22c8.08 0 14.63-6.54 14.63-14.62v-143.38z" fill="#ffa402"/></g></g><g><path d="m504.5 150c4.143 0 7.5-3.358 7.5-7.5s-3.357-7.5-7.5-7.5h-51.293c-4.143 0-7.5 3.358-7.5 7.5s3.357 7.5 7.5 7.5h29.251v166h-160.526c-4.143 0-7.5 3.358-7.5 7.5s3.357 7.5 7.5 7.5h26.462v166h-318.852v-166h258.031c4.143 0 7.5-3.358 7.5-7.5s-3.357-7.5-7.5-7.5h-123.967v-97.447c0-4.142-3.357-7.5-7.5-7.5s-7.5 3.358-7.5 7.5v97.447h-141.106c-4.143 0-7.5 3.358-7.5 7.5s3.357 7.5 7.5 7.5h7.042v166h-7.042c-4.143 0-7.5 3.358-7.5 7.5s3.357 7.5 7.5 7.5h362.936c4.143 0 7.5-3.358 7.5-7.5s-3.357-7.5-7.5-7.5h-7.042v-166h141.106c4.143 0 7.5-3.358 7.5-7.5s-3.357-7.5-7.5-7.5h-7.042v-166z"/><path d="m418.257 135h-276.693c-4.143 0-7.5 3.358-7.5 7.5s3.357 7.5 7.5 7.5h7.042v33.55c0 4.142 3.357 7.5 7.5 7.5s7.5-3.358 7.5-7.5v-33.55h254.65c4.143 0 7.5-3.358 7.5-7.5s-3.357-7.5-7.499-7.5z"/><path d="m51.121 359v110c0 4.142 3.357 7.5 7.5 7.5s7.5-3.358 7.5-7.5v-110c0-4.142-3.357-7.5-7.5-7.5s-7.5 3.358-7.5 7.5z"/><path d="m88.363 359v110c0 4.142 3.357 7.5 7.5 7.5s7.5-3.358 7.5-7.5v-110c0-4.142-3.357-7.5-7.5-7.5s-7.5 3.358-7.5 7.5z"/><path d="m125.604 359v110c0 4.142 3.357 7.5 7.5 7.5s7.5-3.358 7.5-7.5v-110c0-4.142-3.357-7.5-7.5-7.5s-7.5 3.358-7.5 7.5z"/><path d="m162.847 359v110c0 4.142 3.357 7.5 7.5 7.5s7.5-3.358 7.5-7.5v-110c0-4.142-3.357-7.5-7.5-7.5s-7.5 3.358-7.5 7.5z"/><path d="m200.089 359v110c0 4.142 3.357 7.5 7.5 7.5s7.5-3.358 7.5-7.5v-110c0-4.142-3.357-7.5-7.5-7.5s-7.5 3.358-7.5 7.5z"/><path d="m237.331 359v110c0 4.142 3.357 7.5 7.5 7.5s7.5-3.358 7.5-7.5v-110c0-4.142-3.357-7.5-7.5-7.5s-7.5 3.358-7.5 7.5z"/><path d="m282.072 351.5c-4.143 0-7.5 3.358-7.5 7.5v110c0 4.142 3.357 7.5 7.5 7.5s7.5-3.358 7.5-7.5v-110c0-4.142-3.357-7.5-7.5-7.5z"/><path d="m319.314 476.5c4.143 0 7.5-3.358 7.5-7.5v-110c0-4.142-3.357-7.5-7.5-7.5s-7.5 3.358-7.5 7.5v110c0 4.142 3.358 7.5 7.5 7.5z"/><path d="m185.186 178v110c0 4.142 3.357 7.5 7.5 7.5s7.5-3.358 7.5-7.5v-110c0-4.142-3.357-7.5-7.5-7.5s-7.5 3.358-7.5 7.5z"/><path d="m222.428 178v110c0 4.142 3.357 7.5 7.5 7.5s7.5-3.358 7.5-7.5v-110c0-4.142-3.357-7.5-7.5-7.5s-7.5 3.358-7.5 7.5z"/><path d="m259.669 178v110c0 4.142 3.357 7.5 7.5 7.5s7.5-3.358 7.5-7.5v-110c0-4.142-3.357-7.5-7.5-7.5s-7.5 3.358-7.5 7.5z"/><path d="m311.911 178c0-4.142-3.357-7.5-7.5-7.5s-7.5 3.358-7.5 7.5v110c0 4.142 3.357 7.5 7.5 7.5s7.5-3.358 7.5-7.5z"/><path d="m334.153 178v110c0 4.142 3.357 7.5 7.5 7.5s7.5-3.358 7.5-7.5v-110c0-4.142-3.357-7.5-7.5-7.5s-7.5 3.358-7.5 7.5z"/><path d="m371.396 178v110c0 4.142 3.357 7.5 7.5 7.5s7.5-3.358 7.5-7.5v-110c0-4.142-3.357-7.5-7.5-7.5s-7.5 3.358-7.5 7.5z"/><path d="m416.137 170.5c-4.143 0-7.5 3.358-7.5 7.5v110c0 4.142 3.357 7.5 7.5 7.5s7.5-3.358 7.5-7.5v-110c0-4.142-3.358-7.5-7.5-7.5z"/><path d="m460.879 288v-110c0-4.142-3.357-7.5-7.5-7.5s-7.5 3.358-7.5 7.5v110c0 4.142 3.357 7.5 7.5 7.5s7.5-3.358 7.5-7.5z"/><path d="m504.5 60.327h-49.793l16.883-25.327h32.91c4.143 0 7.5-3.358 7.5-7.5s-3.357-7.5-7.5-7.5h-422.49v-12.5c0-4.142-3.357-7.5-7.5-7.5s-7.5 3.358-7.5 7.5v12.5h-19.993v-12.5c0-4.142-3.357-7.5-7.5-7.5s-7.5 3.358-7.5 7.5v12.5h-24.517c-4.143 0-7.5 3.358-7.5 7.5v40.327c0 4.142 3.357 7.5 7.5 7.5h24.517v46.041c-18.215 3.515-32.017 19.581-32.017 38.809 0 21.793 17.728 39.523 39.517 39.523s39.517-17.729 39.517-39.522c0-4.142-3.357-7.5-7.5-7.5s-7.5 3.358-7.5 7.5c0 13.521-10.998 24.522-24.517 24.522s-24.517-11.001-24.517-24.523 10.998-24.523 24.517-24.523c4.143 0 7.5-3.358 7.5-7.5v-52.827h19.993v12.5c0 4.142 3.357 7.5 7.5 7.5s7.5-3.358 7.5-7.5v-12.5h422.49c4.143 0 7.5-3.358 7.5-7.5s-3.357-7.5-7.5-7.5zm-67.82 0h-24.091l16.883-25.327h24.092zm-259.696-25.327h24.091l-16.882 25.327h-24.091zm-34.908 25.327h-24.019l16.882-25.327h24.019zm77.026-25.327h24.02l-16.883 25.327h-24.019zm42.046 0h24.091l-16.883 25.327h-24.091zm42.117 0h24.019l-16.882 25.327h-24.02zm42.045 0h24.091l-16.882 25.327h-24.091zm42.117 0h24.019l-16.882 25.327h-24.019zm-372.427 25.327v-25.327h17.017v25.327zm32.017 0v-25.327h19.993v25.327zm34.993-25.327h34.904l-16.882 25.327h-18.022z"/></g></svg>