<svg height="512" viewBox="0 0 128 128" width="512" xmlns="http://www.w3.org/2000/svg"><g><path d="m98.47 57.228-34.47 20.194-34.47-20.194 34.47-20.193z" fill="#f2da30"/><g fill="#f45858"><path d="m53.134 21.057 10.866-10.865 10.866 10.865z"/><path d="m117.743 96.298 3.951 14.849-14.85 3.951z"/><path d="m10.257 96.298-3.951 14.849 14.85 3.951z"/></g><path d="m64 77.422-34.47-20.194v40.387l34.47 20.193 34.471-20.193v-40.387z" fill="#f2da30"/><g><path d="m41.068 52.22a1.73 1.73 0 0 0 .883-.241l3.871-2.267a1.75 1.75 0 1 0 -1.77-3.02l-3.87 2.268a1.75 1.75 0 0 0 .886 3.26z"/><path d="m123.385 110.7-3.95-14.849a1.751 1.751 0 0 0 -3.206-.428l-4.574 7.891-11.434-6.7v-7.814a1.75 1.75 0 1 0 -3.5 0v7.816l-30.971 18.139v-36.33l30.971-18.143v20.837a1.75 1.75 0 0 0 3.5 0v-23.89a1.723 1.723 0 0 0 -.055-.415c-.009-.037-.022-.072-.034-.108a1.715 1.715 0 0 0 -.116-.283c-.019-.035-.036-.07-.056-.1a1.818 1.818 0 0 0 -.226-.3c-.008-.008-.013-.018-.021-.026a1.812 1.812 0 0 0 -.325-.252c-.012-.007-.02-.018-.033-.025l-33.605-19.688v-13.225h9.115a1.75 1.75 0 0 0 1.235-2.988l-10.863-10.865a1.75 1.75 0 0 0 -2.474 0l-10.863 10.865a1.75 1.75 0 0 0 1.237 2.988h9.113v13.225l-10.75 6.297a1.75 1.75 0 0 0 1.77 3.02l10.73-6.286 31.009 18.166-31.009 18.165-31.009-18.165 1.871-1.1a1.75 1.75 0 0 0 -1.769-3.02l-4.448 2.607c-.013.007-.022.018-.034.025a1.8 1.8 0 0 0 -.323.252c-.009.009-.015.02-.024.029a1.737 1.737 0 0 0 -.223.294c-.021.034-.039.069-.057.1a1.694 1.694 0 0 0 -.116.281c-.012.036-.025.072-.034.11a1.708 1.708 0 0 0 -.055.414v39.391l-11.433 6.7-4.575-7.892a1.751 1.751 0 0 0 -3.206.428l-3.95 14.852a1.752 1.752 0 0 0 1.242 2.142l14.85 3.95a1.75 1.75 0 0 0 1.963-2.569l-4.57-7.885 11.428-6.695 33.586 19.675c.02.012.043.016.063.027a1.782 1.782 0 0 0 .3.126c.035.011.069.024.105.033a1.593 1.593 0 0 0 .83 0c.036-.009.07-.022.1-.033a1.782 1.782 0 0 0 .3-.126c.02-.011.043-.015.063-.027l33.596-19.675 11.428 6.7-4.569 7.881a1.75 1.75 0 0 0 1.514 2.628 1.783 1.783 0 0 0 .45-.059l14.85-3.95a1.752 1.752 0 0 0 1.241-2.143zm-59.385-98.034 6.641 6.641h-13.282zm-55.552 97.24 2.414-9.075 6.661 11.489zm22.831-49.624 30.971 18.143v36.33l-30.971-18.143zm79.2 52.038 6.661-11.489 2.415 9.075z"/></g></g></svg>