<?xml version="1.0" encoding="iso-8859-1"?>
<!-- Generator: Adobe Illustrator 19.0.0, SVG Export Plug-In . SVG Version: 6.00 Build 0)  -->
<svg version="1.1" id="Capa_1" xmlns="http://www.w3.org/2000/svg" xmlns:xlink="http://www.w3.org/1999/xlink" x="0px" y="0px"
	 viewBox="0 0 511.998 511.998" style="enable-background:new 0 0 511.998 511.998;" xml:space="preserve">
<rect x="8.532" y="230.4" style="fill:#D3843D;" width="494.925" height="34.133"/>
<rect x="25.598" y="264.532" style="fill:#FFF69A;" width="460.792" height="238.929"/>
<rect x="59.731" y="366.931" style="fill:#D3843D;" width="136.531" height="102.398"/>
<g>
	<circle style="fill:#FDBD40;" cx="76.797" cy="315.732" r="17.066"/>
	<circle style="fill:#FDBD40;" cx="179.195" cy="315.732" r="17.066"/>
	<rect x="221.861" y="264.532" style="fill:#FDBD40;" width="17.066" height="238.929"/>
	<rect x="230.395" y="324.265" style="fill:#FDBD40;" width="255.996" height="17.066"/>
</g>
<rect x="324.26" y="290.132" style="fill:#D3843D;" width="68.266" height="17.066"/>
<rect x="307.193" y="332.798" style="fill:#FDBD40;" width="17.066" height="170.664"/>
<rect x="273.061" y="358.398" style="fill:#D3843D;" width="17.066" height="17.066"/>
<g>
	<rect x="358.392" y="392.53" style="fill:#B5554E;" width="17.066" height="34.133"/>
	<rect x="426.658" y="392.53" style="fill:#B5554E;" width="17.066" height="34.133"/>
</g>
<g>
	<rect x="392.525" y="332.798" style="fill:#FDBD40;" width="17.066" height="170.664"/>
	<polygon style="fill:#FDBD40;" points="230.403,128.001 8.54,128.001 51.206,42.669 187.737,42.669 	"/>
</g>
<rect x="51.198" y="8.537" style="fill:#D3843D;" width="136.531" height="34.133"/>
<rect x="230.395" y="8.537" style="fill:#FFF69A;" width="273.062" height="119.465"/>
<rect x="358.392" y="8.537" style="fill:#FDBD40;" width="17.066" height="119.465"/>
<g>
	<rect x="324.26" y="85.335" style="fill:#B5554E;" width="17.066" height="17.066"/>
	<rect x="392.525" y="85.335" style="fill:#B5554E;" width="17.066" height="17.066"/>
</g>
<rect x="102.397" y="392.53" style="fill:#FFF69A;" width="51.199" height="17.066"/>
<path d="M0.007,273.066h17.066v238.929h477.859V273.066h17.066v-51.199H0.007C0.007,221.866,0.007,273.066,0.007,273.066z
	 M221.87,494.929H34.14V273.066h187.73V494.929z M307.202,494.929h-68.266V341.331h68.266V494.929z M392.534,494.929h-68.266
	V341.331h68.266V494.929z M477.866,494.929H409.6V341.331h68.266V494.929z M477.866,324.265H238.936v-51.199h238.929V324.265z
	 M17.073,238.933h477.859v17.066H17.073C17.073,255.999,17.073,238.933,17.073,238.933z"/>
<path d="M204.804,358.398H51.206v119.465h153.597V358.398z M187.737,460.796H68.273v-85.332h119.465V460.796z"/>
<path d="M76.806,341.331c14.139,0,25.6-11.46,25.6-25.6c0-14.14-11.46-25.6-25.6-25.6s-25.6,11.46-25.6,25.6
	C51.206,329.871,62.666,341.331,76.806,341.331z M76.806,307.198c4.71,0,8.533,3.823,8.533,8.533c0,4.71-3.823,8.533-8.533,8.533
	s-8.533-3.823-8.533-8.533C68.273,311.021,72.087,307.198,76.806,307.198z"/>
<path d="M179.204,341.331c14.139,0,25.6-11.46,25.6-25.6c0-14.14-11.46-25.6-25.6-25.6s-25.6,11.46-25.6,25.6
	C153.604,329.871,165.064,341.331,179.204,341.331z M179.204,307.198c4.71,0,8.533,3.823,8.533,8.533
	c0,4.71-3.823,8.533-8.533,8.533c-4.71,0-8.533-3.823-8.533-8.533C170.671,311.021,174.485,307.198,179.204,307.198z"/>
<rect x="324.26" y="290.132" width="68.266" height="17.066"/>
<rect x="273.061" y="358.398" width="17.066" height="17.066"/>
<rect x="358.392" y="392.53" width="17.066" height="34.133"/>
<rect x="426.658" y="392.53" width="17.066" height="34.133"/>
<path d="M221.87,91.855l-25.6-51.199V0.003H42.673v40.652l-41.77,83.531c-2.108,4.215-0.401,9.344,3.823,11.452
	c1.178,0.589,2.483,0.896,3.814,0.896h503.458V0.003H221.87V91.855z M59.739,17.07h119.465v17.066H59.739
	C59.739,34.136,59.739,17.07,59.739,17.07z M22.347,119.468L56.48,51.203h125.984l34.133,68.266H22.347z M375.467,17.07h119.465
	v102.398H375.467V17.07z M238.936,17.07h119.465v102.398H238.936V17.07z"/>
<rect x="324.26" y="85.335" width="17.066" height="17.066"/>
<rect x="392.525" y="85.335" width="17.066" height="17.066"/>
<rect x="102.397" y="392.53" width="51.199" height="17.066"/>
<g>
</g>
<g>
</g>
<g>
</g>
<g>
</g>
<g>
</g>
<g>
</g>
<g>
</g>
<g>
</g>
<g>
</g>
<g>
</g>
<g>
</g>
<g>
</g>
<g>
</g>
<g>
</g>
<g>
</g>
</svg>
